<mxfile host="app.diagrams.net" modified="2024-03-20T10:30:08.452Z" agent="Mozilla/5.0 (Windows NT 10.0; Win64; x64) AppleWebKit/537.36 (KHTML, like Gecko) Chrome/122.0.0.0 Safari/537.36" etag="Zi6YD4PDGMW9pKP0c0_a" version="24.0.7" type="device">
  <diagram name="Pagina-1" id="4ZL1Koit8Pq8zXur4kY7">
    <mxGraphModel dx="1518" dy="709" grid="1" gridSize="10" guides="1" tooltips="1" connect="1" arrows="1" fold="1" page="1" pageScale="1" pageWidth="827" pageHeight="1169" math="0" shadow="0">
      <root>
        <mxCell id="0" />
        <mxCell id="1" parent="0" />
        <mxCell id="Y5blrulolfVNWuy4eX0G-1" value="" style="shape=image;html=1;verticalAlign=top;verticalLabelPosition=bottom;labelBackgroundColor=#ffffff;imageAspect=0;aspect=fixed;image=https://cdn4.iconfinder.com/data/icons/ionicons/512/icon-social-github-128.png" parent="1" vertex="1">
          <mxGeometry x="160" y="25" width="80" height="80" as="geometry" />
        </mxCell>
        <mxCell id="Y5blrulolfVNWuy4eX0G-2" value="Push" style="text;html=1;align=center;verticalAlign=middle;whiteSpace=wrap;rounded=0;" parent="1" vertex="1">
          <mxGeometry x="40" y="50" width="60" height="30" as="geometry" />
        </mxCell>
        <mxCell id="Y5blrulolfVNWuy4eX0G-3" value="" style="endArrow=classic;html=1;rounded=0;" parent="1" source="Y5blrulolfVNWuy4eX0G-2" target="Y5blrulolfVNWuy4eX0G-1" edge="1">
          <mxGeometry width="50" height="50" relative="1" as="geometry">
            <mxPoint x="390" y="340" as="sourcePoint" />
            <mxPoint x="440" y="290" as="targetPoint" />
            <Array as="points" />
          </mxGeometry>
        </mxCell>
        <mxCell id="Y5blrulolfVNWuy4eX0G-5" value="" style="endArrow=classic;html=1;rounded=0;entryX=0;entryY=0.5;entryDx=0;entryDy=0;" parent="1" source="Y5blrulolfVNWuy4eX0G-1" target="Y5blrulolfVNWuy4eX0G-6" edge="1">
          <mxGeometry width="50" height="50" relative="1" as="geometry">
            <mxPoint x="390" y="340" as="sourcePoint" />
            <mxPoint x="300" y="65" as="targetPoint" />
          </mxGeometry>
        </mxCell>
        <mxCell id="Y5blrulolfVNWuy4eX0G-34" style="edgeStyle=orthogonalEdgeStyle;rounded=0;orthogonalLoop=1;jettySize=auto;html=1;exitX=1;exitY=0.5;exitDx=0;exitDy=0;entryX=0;entryY=0.25;entryDx=0;entryDy=0;" parent="1" source="Y5blrulolfVNWuy4eX0G-6" target="Y5blrulolfVNWuy4eX0G-10" edge="1">
          <mxGeometry relative="1" as="geometry" />
        </mxCell>
        <mxCell id="Y5blrulolfVNWuy4eX0G-6" value="CI/CD" style="rounded=0;whiteSpace=wrap;html=1;" parent="1" vertex="1">
          <mxGeometry x="300" y="47.5" width="80" height="35" as="geometry" />
        </mxCell>
        <mxCell id="Y5blrulolfVNWuy4eX0G-7" value="" style="outlineConnect=0;dashed=0;verticalLabelPosition=bottom;verticalAlign=top;align=center;html=1;shape=mxgraph.aws3.s3;fillColor=#E05243;gradientColor=none;" parent="1" vertex="1">
          <mxGeometry x="50.01" y="310" width="76.5" height="93" as="geometry" />
        </mxCell>
        <mxCell id="Y5blrulolfVNWuy4eX0G-8" value="" style="outlineConnect=0;dashed=0;verticalLabelPosition=bottom;verticalAlign=top;align=center;html=1;shape=mxgraph.aws3.glue;fillColor=#F58534;gradientColor=none;" parent="1" vertex="1">
          <mxGeometry x="160" y="174.25" width="82.5" height="99" as="geometry" />
        </mxCell>
        <mxCell id="Y5blrulolfVNWuy4eX0G-10" value="" style="rounded=1;whiteSpace=wrap;html=1;" parent="1" vertex="1">
          <mxGeometry x="460" y="47.5" width="340" height="272.5" as="geometry" />
        </mxCell>
        <mxCell id="Y5blrulolfVNWuy4eX0G-11" value="" style="outlineConnect=0;dashed=0;verticalLabelPosition=bottom;verticalAlign=top;align=center;html=1;shape=mxgraph.aws3.lambda_function;fillColor=#F58534;gradientColor=none;" parent="1" vertex="1">
          <mxGeometry x="480" y="60" width="69" height="72" as="geometry" />
        </mxCell>
        <mxCell id="Y5blrulolfVNWuy4eX0G-12" value="" style="outlineConnect=0;dashed=0;verticalLabelPosition=bottom;verticalAlign=top;align=center;html=1;shape=mxgraph.aws3.lambda_function;fillColor=#F58534;gradientColor=none;" parent="1" vertex="1">
          <mxGeometry x="595.5" y="60" width="69" height="72" as="geometry" />
        </mxCell>
        <mxCell id="Y5blrulolfVNWuy4eX0G-13" value="S3 Bucket:&lt;div&gt;DB TEDx&lt;/div&gt;" style="text;html=1;align=center;verticalAlign=middle;whiteSpace=wrap;rounded=0;" parent="1" vertex="1">
          <mxGeometry x="32.379999999999995" y="420" width="111.75" height="30" as="geometry" />
        </mxCell>
        <mxCell id="Y5blrulolfVNWuy4eX0G-14" value="" style="endArrow=classic;html=1;rounded=0;" parent="1" source="Y5blrulolfVNWuy4eX0G-7" target="Y5blrulolfVNWuy4eX0G-8" edge="1">
          <mxGeometry width="50" height="50" relative="1" as="geometry">
            <mxPoint x="390" y="340" as="sourcePoint" />
            <mxPoint x="440" y="290" as="targetPoint" />
            <Array as="points">
              <mxPoint x="90" y="224" />
            </Array>
          </mxGeometry>
        </mxCell>
        <mxCell id="Y5blrulolfVNWuy4eX0G-15" value="Repository" style="text;html=1;align=center;verticalAlign=middle;whiteSpace=wrap;rounded=0;" parent="1" vertex="1">
          <mxGeometry x="170" y="105" width="60" height="30" as="geometry" />
        </mxCell>
        <mxCell id="Y5blrulolfVNWuy4eX0G-16" value="AWS Glue" style="text;html=1;align=center;verticalAlign=middle;whiteSpace=wrap;rounded=0;" parent="1" vertex="1">
          <mxGeometry x="170" y="290" width="60" height="30" as="geometry" />
        </mxCell>
        <mxCell id="Y5blrulolfVNWuy4eX0G-21" value="elabora_video" style="text;html=1;align=center;verticalAlign=middle;whiteSpace=wrap;rounded=0;" parent="1" vertex="1">
          <mxGeometry x="477.25" y="140" width="74.5" height="25" as="geometry" />
        </mxCell>
        <mxCell id="Y5blrulolfVNWuy4eX0G-23" value="prossimo_suggerito" style="text;html=1;align=center;verticalAlign=middle;whiteSpace=wrap;rounded=0;" parent="1" vertex="1">
          <mxGeometry x="592.75" y="140" width="74.5" height="25" as="geometry" />
        </mxCell>
        <mxCell id="Y5blrulolfVNWuy4eX0G-24" value="" style="outlineConnect=0;dashed=0;verticalLabelPosition=bottom;verticalAlign=top;align=center;html=1;shape=mxgraph.aws3.lambda_function;fillColor=#F58534;gradientColor=none;" parent="1" vertex="1">
          <mxGeometry x="702.75" y="60" width="69" height="72" as="geometry" />
        </mxCell>
        <mxCell id="Y5blrulolfVNWuy4eX0G-25" value="preferiti" style="text;html=1;align=center;verticalAlign=middle;whiteSpace=wrap;rounded=0;" parent="1" vertex="1">
          <mxGeometry x="700" y="140" width="74.5" height="25" as="geometry" />
        </mxCell>
        <mxCell id="Y5blrulolfVNWuy4eX0G-26" value="" style="outlineConnect=0;dashed=0;verticalLabelPosition=bottom;verticalAlign=top;align=center;html=1;shape=mxgraph.aws3.cognito;fillColor=#AD688B;gradientColor=none;" parent="1" vertex="1">
          <mxGeometry x="375.25" y="499.5" width="76.5" height="93" as="geometry" />
        </mxCell>
        <mxCell id="Y5blrulolfVNWuy4eX0G-27" value="" style="sketch=0;outlineConnect=0;fontColor=#232F3E;gradientColor=none;fillColor=#232F3D;strokeColor=none;dashed=0;verticalLabelPosition=bottom;verticalAlign=top;align=center;html=1;fontSize=12;fontStyle=0;aspect=fixed;pointerEvents=1;shape=mxgraph.aws4.mobile_client;" parent="1" vertex="1">
          <mxGeometry x="194.25" y="507" width="41" height="78" as="geometry" />
        </mxCell>
        <mxCell id="Y5blrulolfVNWuy4eX0G-29" value="Cognito:&lt;div&gt;Gestione account&lt;/div&gt;" style="text;html=1;align=center;verticalAlign=middle;whiteSpace=wrap;rounded=0;" parent="1" vertex="1">
          <mxGeometry x="363" y="600" width="101.75" height="30" as="geometry" />
        </mxCell>
        <mxCell id="Y5blrulolfVNWuy4eX0G-30" value="Client mobile" style="text;html=1;align=center;verticalAlign=middle;whiteSpace=wrap;rounded=0;" parent="1" vertex="1">
          <mxGeometry x="170" y="592.5" width="89.5" height="30" as="geometry" />
        </mxCell>
        <mxCell id="3IzKLplpAwX-zPGJjmoa-1" value="" style="outlineConnect=0;dashed=0;verticalLabelPosition=bottom;verticalAlign=top;align=center;html=1;shape=mxgraph.aws3.api_gateway;fillColor=#D9A741;gradientColor=none;" vertex="1" parent="1">
          <mxGeometry x="590.75" y="499.5" width="76.5" height="93" as="geometry" />
        </mxCell>
        <mxCell id="3IzKLplpAwX-zPGJjmoa-3" value="" style="endArrow=classic;startArrow=classic;html=1;rounded=0;exitX=1;exitY=0.5;exitDx=0;exitDy=0;exitPerimeter=0;" edge="1" parent="1" source="Y5blrulolfVNWuy4eX0G-26" target="3IzKLplpAwX-zPGJjmoa-1">
          <mxGeometry width="50" height="50" relative="1" as="geometry">
            <mxPoint x="390" y="430" as="sourcePoint" />
            <mxPoint x="440" y="380" as="targetPoint" />
          </mxGeometry>
        </mxCell>
        <mxCell id="3IzKLplpAwX-zPGJjmoa-4" value="" style="endArrow=classic;startArrow=classic;html=1;rounded=0;exitX=0.5;exitY=0;exitDx=0;exitDy=0;exitPerimeter=0;entryX=0.5;entryY=1;entryDx=0;entryDy=0;" edge="1" parent="1" source="3IzKLplpAwX-zPGJjmoa-1" target="Y5blrulolfVNWuy4eX0G-10">
          <mxGeometry width="50" height="50" relative="1" as="geometry">
            <mxPoint x="390" y="430" as="sourcePoint" />
            <mxPoint x="440" y="380" as="targetPoint" />
          </mxGeometry>
        </mxCell>
        <mxCell id="3IzKLplpAwX-zPGJjmoa-5" value="" style="endArrow=classic;startArrow=classic;html=1;rounded=0;exitX=0;exitY=0.5;exitDx=0;exitDy=0;exitPerimeter=0;" edge="1" parent="1" source="Y5blrulolfVNWuy4eX0G-26" target="Y5blrulolfVNWuy4eX0G-27">
          <mxGeometry width="50" height="50" relative="1" as="geometry">
            <mxPoint x="390" y="430" as="sourcePoint" />
            <mxPoint x="440" y="380" as="targetPoint" />
          </mxGeometry>
        </mxCell>
        <mxCell id="3IzKLplpAwX-zPGJjmoa-6" value="" style="endArrow=classic;startArrow=classic;html=1;rounded=0;" edge="1" parent="1" target="3IzKLplpAwX-zPGJjmoa-1">
          <mxGeometry width="50" height="50" relative="1" as="geometry">
            <mxPoint x="240" y="570" as="sourcePoint" />
            <mxPoint x="400" y="690" as="targetPoint" />
            <Array as="points">
              <mxPoint x="410" y="680" />
            </Array>
          </mxGeometry>
        </mxCell>
        <mxCell id="3IzKLplpAwX-zPGJjmoa-7" value="API gateway" style="text;html=1;align=center;verticalAlign=middle;whiteSpace=wrap;rounded=0;" vertex="1" parent="1">
          <mxGeometry x="574.5" y="600" width="111" height="30" as="geometry" />
        </mxCell>
        <mxCell id="3IzKLplpAwX-zPGJjmoa-8" value="" style="outlineConnect=0;dashed=0;verticalLabelPosition=bottom;verticalAlign=top;align=center;html=1;shape=mxgraph.aws3.dynamo_db;fillColor=#2E73B8;gradientColor=none;" vertex="1" parent="1">
          <mxGeometry x="320" y="273.25" width="72" height="81" as="geometry" />
        </mxCell>
        <mxCell id="3IzKLplpAwX-zPGJjmoa-11" value="" style="endArrow=classic;startArrow=classic;html=1;rounded=0;entryX=0.055;entryY=0.976;entryDx=0;entryDy=0;exitX=1;exitY=0.5;exitDx=0;exitDy=0;exitPerimeter=0;entryPerimeter=0;" edge="1" parent="1" source="3IzKLplpAwX-zPGJjmoa-8">
          <mxGeometry width="50" height="50" relative="1" as="geometry">
            <mxPoint x="392" y="311.75" as="sourcePoint" />
            <mxPoint x="478.70000000000005" y="313.46000000000004" as="targetPoint" />
          </mxGeometry>
        </mxCell>
        <mxCell id="3IzKLplpAwX-zPGJjmoa-14" value="Dynamo DB" style="text;html=1;align=center;verticalAlign=middle;whiteSpace=wrap;rounded=0;" vertex="1" parent="1">
          <mxGeometry x="316" y="362" width="80" height="30" as="geometry" />
        </mxCell>
        <mxCell id="3IzKLplpAwX-zPGJjmoa-15" value="" style="outlineConnect=0;dashed=0;verticalLabelPosition=bottom;verticalAlign=top;align=center;html=1;shape=mxgraph.aws3.lambda_function;fillColor=#F58534;gradientColor=none;" vertex="1" parent="1">
          <mxGeometry x="480" y="187.75" width="69" height="72" as="geometry" />
        </mxCell>
        <mxCell id="3IzKLplpAwX-zPGJjmoa-16" value="vedi_completo" style="text;html=1;align=center;verticalAlign=middle;whiteSpace=wrap;rounded=0;" vertex="1" parent="1">
          <mxGeometry x="477.25" y="271.25" width="75.5" height="30" as="geometry" />
        </mxCell>
        <mxCell id="3IzKLplpAwX-zPGJjmoa-17" value="" style="outlineConnect=0;dashed=0;verticalLabelPosition=bottom;verticalAlign=top;align=center;html=1;shape=mxgraph.aws3.lambda_function;fillColor=#F58534;gradientColor=none;" vertex="1" parent="1">
          <mxGeometry x="595.5" y="187.75" width="69" height="72" as="geometry" />
        </mxCell>
        <mxCell id="3IzKLplpAwX-zPGJjmoa-18" value="ricerca_tag" style="text;html=1;align=center;verticalAlign=middle;whiteSpace=wrap;rounded=0;" vertex="1" parent="1">
          <mxGeometry x="580" y="271.25" width="100" height="30" as="geometry" />
        </mxCell>
        <mxCell id="3IzKLplpAwX-zPGJjmoa-19" value="[caso di uso senza account]" style="text;html=1;align=center;verticalAlign=middle;whiteSpace=wrap;rounded=0;" vertex="1" parent="1">
          <mxGeometry x="320.75" y="690" width="186.25" height="30" as="geometry" />
        </mxCell>
        <mxCell id="3IzKLplpAwX-zPGJjmoa-22" value="" style="outlineConnect=0;dashed=0;verticalLabelPosition=bottom;verticalAlign=top;align=center;html=1;shape=mxgraph.aws3.lambda_function;fillColor=#F58534;gradientColor=none;" vertex="1" parent="1">
          <mxGeometry x="700" y="187.75" width="69" height="72" as="geometry" />
        </mxCell>
        <mxCell id="3IzKLplpAwX-zPGJjmoa-23" value="share" style="text;html=1;align=center;verticalAlign=middle;whiteSpace=wrap;rounded=0;" vertex="1" parent="1">
          <mxGeometry x="704.5" y="273.25" width="60" height="30" as="geometry" />
        </mxCell>
        <mxCell id="3IzKLplpAwX-zPGJjmoa-28" value="" style="endArrow=classic;startArrow=classic;html=1;rounded=0;exitX=1;exitY=0.5;exitDx=0;exitDy=0;exitPerimeter=0;entryX=0;entryY=0.5;entryDx=0;entryDy=0;" edge="1" parent="1" source="Y5blrulolfVNWuy4eX0G-8" target="Y5blrulolfVNWuy4eX0G-10">
          <mxGeometry width="50" height="50" relative="1" as="geometry">
            <mxPoint x="265" y="207.75" as="sourcePoint" />
            <mxPoint x="415" y="187.75" as="targetPoint" />
            <Array as="points">
              <mxPoint x="360" y="224" />
              <mxPoint x="360" y="184" />
            </Array>
          </mxGeometry>
        </mxCell>
      </root>
    </mxGraphModel>
  </diagram>
</mxfile>
